<?xml version="1.0" encoding="UTF-8" standalone="no"?> <!DOCTYPE svg PUBLIC "-//W3C//DTD SVG 1.1//EN" "http://www.w3.org/Graphics/SVG/1.1/DTD/svg11.dtd">
<svg height="100%" style="fill-rule:nonzero;clip-rule:evenodd;stroke-linecap:round;stroke-linejoin:round;" xmlns:xlink="http://www.w3.org/1999/xlink" xmlns="http://www.w3.org/2000/svg" xml:space="preserve" width="100%" xmlns:vectornator="http://vectornator.io" version="1.1" viewBox="0 0 1024 1024">
<defs/>
<g id="구름" vectornator:layerName="구름">
<path stroke="#80b4ff" stroke-width="21.4733" d="M420.809+383.913C293.322+389.187+212.193+506.728+212.966+592.623C134.156+599.404+59.6518+668.392+30.6208+723.726C13.6225+756.125+1.26011+839.006+18.2584+878.187C35.2567+917.367+66.9353+981.412+256.234+982.919C440.95+984.389+615.044+993.111+796.176+985.933C853.575+983.658+926.894+969.356+950.074+950.52C973.253+931.683+1006.83+885.043+1007.04+846.918C1007.25+808.868+987.933+719.959+842.675+713.931C839.585+619.748+764.638+577.554+678.101+578.307C671.147+524.811+617.681+375.768+420.809+383.913Z" fill="#acceff" stroke-linecap="round" opacity="1" stroke-linejoin="round"/>
<path d="M495.761+763.194C481.404+755.824+490.876+743.393+528.292+676.823C565.7+610.269+575.843+597.333+567.398+591.784C559.279+586.449+551.983+595.245+509.408+675.675C472.203+745.961+471.358+749.51+460.349+743.541C455.18+740.738+457.868+716.246+484.65+640.173C523.799+528.974+582.898+478.928+631.443+478.319C679.987+477.711+716.931+410.286+745.209+361.798C773.668+312.999+806.37+259.853+841.946+192.952C870.33+139.575+884.232+118.877+912.616+74.2147C934.542+39.7141+947.495+28.9606+976.336+46.4367C1002.4+62.232+1006+73.2064+979.232+110.707C959.62+138.18+925.376+176.012+882.495+232.712C839.613+289.413+808.108+333.723+769.997+386.74C734.644+435.918+706.742+492.324+713.661+521.287C721.568+554.383+756.637+577.651+648.196+712.121C602.944+768.235+566.323+802.456+560.379+799C549.221+792.513+560.002+785.459+603.516+708.924C633.393+656.375+651.666+634.346+643.51+629.091C635.354+623.836+619.707+652.756+584.015+711.103C537.995+786.332+541.236+789.14+529.317+783.1C517.253+776.986+524.404+767.036+563.36+697.835C602.317+628.633+613.232+615.542+604.605+610.938C595.978+606.334+582.273+628.934+550.389+687.103C514.071+753.36+510.118+770.565+495.761+763.194Z" opacity="1" fill="#000000"/>
<path stroke="#80b4ff" stroke-width="17.3496" d="M419.261+661.186C519.775+615.445+564.435+640.447+604.301+667.549C644.167+694.65+668.091+756.444+653.88+810.088" fill="#acceff" stroke-linecap="round" opacity="1" stroke-linejoin="round"/>
<path stroke="#ffffff" stroke-width="10.8628" d="M929.325+82.0926C910.213+104.943+877.087+161.379+858.71+199.576" fill="none" stroke-linecap="round" opacity="1" stroke-linejoin="round"/>
<path d="M934.469+68.0457C934.469+64.733+937.208+62.0476+940.587+62.0476C943.966+62.0476+946.706+64.733+946.706+68.0457C946.706+71.3584+943.966+74.0438+940.587+74.0438C937.208+74.0438+934.469+71.3584+934.469+68.0457Z" opacity="1" fill="#ffffff"/>
<path d="M486.297+671.111L614.871+740.411C626.293+746.566+630.561+760.816+624.405+772.237L571.883+869.684C565.727+881.105+551.478+885.373+540.057+879.218L411.483+809.918C400.061+803.762+395.793+789.513+401.949+778.092L454.471+680.645C460.627+669.224+474.876+664.955+486.297+671.111Z" opacity="1" fill="#acceff"/>
<path d="M1845.59+1114.37L1856.58+1114.37C1861.69+1114.37+1865.83+1118.51+1865.83+1123.62L1865.83+1123.62C1865.83+1128.74+1861.69+1132.88+1856.58+1132.88L1845.59+1132.88C1840.48+1132.88+1836.34+1128.74+1836.34+1123.62L1836.34+1123.62C1836.34+1118.51+1840.48+1114.37+1845.59+1114.37Z" opacity="1" fill="#acceff"/>
</g>
</svg>
